<?xml version="1.0" standalone="no"?><!DOCTYPE svg PUBLIC "-//W3C//DTD SVG 1.1//EN" "http://www.w3.org/Graphics/SVG/1.1/DTD/svg11.dtd"><svg t="1709648143128" class="icon" viewBox="0 0 1024 1024" version="1.1" xmlns="http://www.w3.org/2000/svg" p-id="7816" width="16" height="16" xmlns:xlink="http://www.w3.org/1999/xlink"><path d="M92.832 120.032a317.12 317.12 0 0 0 31.136 46.496h-0.096a96.32 96.32 0 0 0-14.752-1.12h-0.48 0.032a113.728 113.728 0 0 0-34.56 5.792l0.8-0.224c21.088 17.696 38.912 30.592 54.656 40.544 38.624 12.544 81.568 33.376 118.176 56.672 18.304 11.648 34.656 23.168 47.488 33.28 12.832 10.08 24.192 20.096 26.496 24.48 2.304 4.352-0.032 5.92-3.488 2.56-3.456-3.328-12.896-13.6-25.6-23.584-13.504-10.56-28.896-21.44-44.8-31.616l-2.432-1.44c-33.056-20.896-84.576-40.96-115.84-60.32-24.32-7.776-50.432-8.832-81.152 5.76 22.432 14.08 41.248 24.224 57.728 31.84 47.104 6.624 96.384 29.664 137.6 55.808 20.608 13.152 38.624 26.272 52.064 37.024 6.752 5.344 12.384 10.112 16.64 13.984 4.192 3.84 7.52 6.624 8.448 8.96 1.28 3.168-0.864 4.448-3.616 2.432-1.376-0.928-3.616-4.352-7.776-8.16-4.928-4.48-10.272-9.024-15.776-13.408l-0.64-0.512a598.56 598.56 0 0 0-51.616-36.608c-38.144-23.936-95.264-43.168-135.456-59.552-25.632-4.704-52.192-2.56-81.248 16.608a541.12 541.12 0 0 0 50.432 19.808c-24.16 0.864-48.128 8.416-71.52 30.592 20.352 5.024 37.76 8.448 53.088 10.656-18.784 3.84-37.12 12.8-55.008 30.72 13.824 2.976 26.272 5.248 37.664 6.944-14.048 6.784-27.296 17.312-39.424 33.408 15.904 1.28 29.984 1.792 42.656 1.824-15.36 7.072-29.696 18.272-42.496 36.256a549.76 549.76 0 0 0 58.144 0.096c-18.016 7.328-34.656 19.808-48.8 41.344a504.768 504.768 0 0 0 71.904-3.52l-2.4 0.224-0.352 0.096c42.24-3.104 98.144 5.408 126.496 36.192 2.208 2.432-1.024 5.024-3.104 3.168-27.648-24.736-63.744-35.296-123.392-39.328-23.2 6.4-44.672 19.072-62.336 45.856a550.08 550.08 0 0 0 58.24-2.016c-20.064 10.88-37.152 27.424-48.512 55.648a527.008 527.008 0 0 0 52.768-12.512c-15.488 11.296-28.544 27.136-37.248 50.944 13.824-3.072 26.08-6.24 37.12-9.44a106.56 106.56 0 0 0-21.76 46.08l-0.128 0.704c14.976-5.536 27.936-10.912 39.52-16.224h0.096c12.064-9.824 30.304-19.488 55.008-26.528 21.6-6.176 46.176-12.128 70.496-12.832a129.568 129.568 0 0 1 10.688 0h-0.256c4.256 0.128 2.688 4.448 0.256 4.384-31.072-0.352-55.552 5.632-79.904 12.576-22.176 7.072-40.8 14.688-58.688 23.552l2.432-1.088a106.336 106.336 0 0 0-23.424 50.176l-0.096 0.64c21.12-8.448 38.368-16.544 52.832-24.224-13.28 14.208-23.168 32.416-27.104 57.888 24.16-10.496 44.384-21.12 63.712-32.992l-2.176 1.248c-18.432 15.456-32.608 36-37.504 67.744 28.992-12.48 53.728-26.144 76.992-41.856l-1.632 1.024c-7.84 15.872-12 34.432-10.016 57.6 32.512-24.96 53.12-45.056 68.448-62.848a113.376 113.376 0 0 0 3.424 38.56l-0.192-0.8c19.168-32.928 38.272-46.624 57.728-57.952-24.032 15.776-19.808 28.64-19.808 43.264 29.152-30.72 69.792-63.264 82.208-83.68-16.64 24.96-23.328 48.64-27.744 69.504-85.088 45.024-136.96 56.736-194.976 74.752 22.528 8.288 46.72 16.352 36.736 27.808l-26.656 26.592c17.024-5.28 34.336-12.8 49.408-2.464-1.44 13.952-19.104 21.024-34.144 29.152 26.464-9.568 32.256-7.392 39.264-5.12 3.424 16.672-8.672 25.696-16.512 36.704 66.784-50.784 153.856-90.784 215.264-107.552 86.272-29.056 197.632-59.296 227.872-132.992 10.016-40.352 20.384-81.28 30.176-121.248-4.736-1.504-10.464-2.688-14.944-5.664a28.16 28.16 0 0 1-9.92-12.576l-0.064-0.192c-10.752 2.816-18.816 1.312-23.904-3.744-5.024-4.992-7.168-12.544-8.672-20.896-8.704 1.792-15.52 0.736-20.064-3.232-4.864-4.352-7.264-11.104-8.448-18.912l-0.256-1.76 1.568-0.608c4.992-1.92 9.28-4.768 12.8-8.32a10.88 10.88 0 0 0 3.04-9.664v0.064l-0.256-1.568 1.28-0.672c6.944-3.968 14.752-7.168 18.336-11.904a11.648 11.648 0 0 0 2.144-9.024v0.064a37.216 37.216 0 0 0-6.656-15.456l0.064 0.096-1.184-1.696 1.696-1.152c5.024-3.84 10.496-7.52 13.216-10.976 1.376-1.76 1.952-3.296 1.92-4.704 0-1.408-0.64-3.04-2.784-5.088l-4.128-4 5.76 0.256c9.056 0.384 16.896-0.256 23.008-2.272a21.44 21.44 0 0 0 12.576-9.472l0.064-0.096a19.84 19.84 0 0 1-0.224-2.88v-0.288a19.424 19.424 0 0 1 38.848 0 18.88 18.88 0 0 1-0.992 5.76l0.032-0.128c7.84 0.672 15.328 0.352 22.368-2.72l1.568-0.512c10.08-3.584 14.208 1.92 30.72-19.584-72.096-93.472-177.408-26.976-212.384 69.344-8.96 24.608-59.936 24.608-74.752-0.096C421.44 302.112 243.904 169.12 92.832 120.096z m31.232 46.528c10.752-0.384 48.224 19.328 55.904 22.176a962.88 962.88 0 0 1 70.368 43.52l-3.52-2.24c21.536 14.336 40.992 28.288 54.368 38.496 6.656 5.12 11.808 9.312 14.976 12.16 1.568 1.44 2.72 2.432 3.424 3.488 0.192 0.256 0.32 0.576 0.416 0.928v0.032a2.752 2.752 0 0 1 0.128 0.768 2.272 2.272 0 0 1-0.288 1.152 2.24 2.24 0 0 1-1.824 1.28l-0.576 0.064a3.936 3.936 0 0 1-0.608-0.064h0.032c-2.432 0.032-8.608-6.944-21.152-17.696a980.64 980.64 0 0 0-112.8-75.328l-4.864-2.592c-21.504-11.936-40.8-23.04-53.92-26.112zM75.36 285.472c34.656 0 80.64 15.584 125.056 39.264 44.512 23.776 87.168 52 107.776 75.904 2.816 3.232-0.8 5.248-3.296 2.912-22.176-21.152-62.368-51.456-106.592-75.008-27.168-14.336-91.648-42.88-122.976-43.04z m-18.272 41.28c47.616 0.64 100.192 19.04 146.432 42.496 23.072 11.744 43.68 24.32 59.552 35.488 15.872 11.232 28.704 22.304 31.328 28.032 2.656 5.664-0.8 5.536-3.68 2.304a187.296 187.296 0 0 0-29.536-26.368l-0.544-0.384a473.024 473.024 0 0 0-56.288-33.856l-2.752-1.28c-41.088-20.576-97.44-39.52-144.512-46.432zM64 361.504c2.816-0.128 5.664 0 8.576 0.256 35.072 3.04 73.344 15.616 108.064 31.904 46.368 21.728 86.816 49.376 103.84 71.072 1.504 1.92-0.48 5.664-3.328 2.72-18.272-18.784-56.32-48.288-102.272-69.856-38.944-17.92-97.408-37.12-139.232-33.248 8.032-1.024 15.904-2.592 24.32-2.912z m705.76 0.576c-15.584 20.256-22.624 18.144-29.92 19.84 3.968 18.4 14.944 25.056 24.992 32.928 86.176-15.872 183.04-11.68 259.424-9.6l-254.432-43.104z m-34.272 21.056c-8.096 3.296-16.512 3.36-24.928 2.56a19.328 19.328 0 0 1-34.24-1.76l-0.064-0.128a26.24 26.24 0 0 1-12.672 8.896l-0.192 0.064a65.92 65.92 0 0 1-21.152 2.304h0.16c0.864 1.504 2.304 2.848 2.304 4.384a11.552 11.552 0 0 1-3.008 7.424c-3.104 3.968-8.032 7.328-12.576 10.656 3.04 4.384 5.248 9.568 6.304 15.136l0.032 0.256a16.352 16.352 0 0 1-3.04 12.16l0.032-0.032c-4.512 5.984-12.256 8.992-18.688 12.576l0.032 0.896a15.936 15.936 0 0 1-3.968 10.528v-0.032c-3.52 3.552-7.744 6.4-12.416 8.32l-0.256 0.096c1.152 6.688 3.168 12.064 6.56 15.104 3.68 3.232 9.056 4.448 18.176 2.08l2.336-0.672 0.416 2.336c1.44 8.832 3.744 16.48 7.968 20.64 4.256 4.224 10.368 5.76 21.408 2.336l2.08-0.672 0.64 2.144c1.6 5.024 4.736 9.184 8.896 11.968l0.064 0.064c3.712 2.56 10.656 4.768 15.36 6.272 34.048-37.024 65.056-75.616 80.384-122.016-9.6-7.52-21.664-14.304-26.112-33.92z m-674.048 15.712a284.384 284.384 0 0 1 119.904 28.064l-1.696-0.736c39.264 18.336 70.752 40.064 84.256 55.776 3.168 3.712-0.864 5.216-3.104 3.168a349.76 349.76 0 0 0-80.992-54.144l-2.08-0.896c-38.56-17.76-93.696-27.552-134.816-30.624 6.176-0.416 12.384-0.608 18.56-0.544z m18.432 34.816a267.424 267.424 0 0 1 77.088 15.008c32.256 11.168 60.576 26.208 74.496 41.824 1.888 2.144-0.224 5.536-3.072 2.976-14.88-12.96-41.056-29.6-72.832-40.672-24.544-8.32-68.96-15.648-96.864-16.896 8.352-0.896 12.512-2.56 21.152-2.272z m38.112 76c2.144 0 4.384 0.16 6.656 0.352 18.08 1.44 37.792 5.664 57.248 17.312 1.824 1.12 2.08 5.792-2.144 3.84-36.512-17.152-56.608-20.864-104.864-13.152 14.432-4.832 27.808-8.48 43.104-8.352z m17.728 33.44c12.8 0.16 26.144 2.656 42.592 9.216 1.888 0.768 3.424 5.376-1.408 4-36.576-10.368-49.792-13.984-97.632 4.448a78.528 78.528 0 0 1 43.616-17.184c4.256-0.384 8.544-0.544 12.832-0.48z m62.272 29.056c6.656 0 13.28 0.384 19.616 1.12 2.272 0.224 2.336 4.352-0.288 4.256a338.432 338.432 0 0 0-80.512 5.184l2.08-0.32c-10.368 1.952-18.016 1.888-59.904 19.616 12.192-9.984 33.92-19.232 59.136-23.904a337.856 337.856 0 0 1 59.872-5.984z m56.992 38.656c1.504-0.224 4.48 3.584 0.736 4.256-31.136 5.792-53.088 11.424-76.576 19.424-9.216 3.168-24.704 8.832-52.992 25.088 11.04-11.488 27.936-21.088 51.744-29.184 21.76-7.936 47.712-14.752 74.432-19.232l2.656-0.384z m13.216 21.664c3.2-0.512 4.224 3.712 0.928 4.352-51.936 10.24-75.104 23.712-108.416 48.8 21.472-22.304 55.296-44.8 107.488-53.152z m25.44 19.072l0.64-0.064 0.672 0.064h-0.032c2.56 0.48 2.944 3.808-0.384 4.256-37.216 5.536-63.104 23.68-96.288 56.832 12.576-21.088 42.912-52.992 95.392-61.088z m15.84 16.704c1.952-0.224 4.96 3.104 1.056 4.256-8.224 2.4-18.464 6.4-28.576 12.8-7.776 5.024-12.896 8.608-25.6 21.664 4.768-10.464 12.768-18.56 23.296-25.216 10.496-6.688 21.632-12.512 29.824-13.536z" fill="#008080" p-id="7817"></path></svg>