<?xml version="1.0" standalone="no"?><!DOCTYPE svg PUBLIC "-//W3C//DTD SVG 1.1//EN" "http://www.w3.org/Graphics/SVG/1.1/DTD/svg11.dtd"><svg t="1709650801524" class="icon" viewBox="0 0 1025 1024" version="1.1" xmlns="http://www.w3.org/2000/svg" p-id="23306" width="64.0625" height="64" xmlns:xlink="http://www.w3.org/1999/xlink"><path d="M991.171 279.104c-22.592-55.552-55.744-105.344-98.56-148.032-42.816-42.688-92.736-75.776-148.416-98.304C690.5 11.008 633.667 0 575.427 0 517.187 0 460.42 11.008 406.66 32.768c-55.68 22.528-105.6 55.616-148.416 98.304-62.72 62.528-105.088 141.888-122.56 229.376l-1.728 9.216c-0.064 0.448-0.128 0.896-0.256 1.344-0.448 2.688-0.896 5.376-1.28 8.064a42.89 42.89 0 0 0-0.448 2.816c-0.384 2.304-0.704 4.672-1.024 6.976a81.45 81.45 0 0 0-0.512 3.904c-0.256 2.112-0.512 4.16-0.704 6.208-0.192 1.664-0.384 3.264-0.512 4.928 0 0.128-0.064 0.32-0.064 0.448v0.128a456.78 456.78 0 0 0 3.712 119.232c7.488 45.824 21.76 89.472 42.496 130.176L16.643 790.976a42.505 42.505 0 0 0-1.792 1.664C3.843 803.584-1.405 819.136 0.323 835.2c1.472 13.504 7.872 26.432 17.856 36.544l132.992 133.888 0.128 0.128c10.112 10.048 23.104 16.448 36.672 17.92 2.112 0.192 4.096 0.32 6.144 0.32 13.888 0 26.944-5.248 36.544-14.784 0.512-0.512 1.024-1.024 1.472-1.6l141.312-160.448c79.552 40.064 168.96 55.36 257.344 44.352 0.192 0 0.384-0.064 0.576-0.064 3.648-0.448 7.232-0.96 10.88-1.472 0.512-0.064 0.96-0.128 1.472-0.192 1.536-0.256 3.008-0.448 4.544-0.704l4.416-0.768 3.456-0.576c2.56-0.448 5.056-0.96 7.552-1.472 0.832-0.192 1.664-0.32 2.496-0.512 2.752-0.576 5.504-1.152 8.256-1.792h0.064c82.624-18.56 158.016-60.096 218.176-120.064 42.816-42.688 75.968-92.544 98.56-148.032 21.696-53.632 32.768-110.272 32.768-168.384 0-58.112-11.072-114.752-32.832-168.384zM388.42 778.432c-1.536-0.896-3.136-1.792-4.672-2.688-12.992-7.552-29.44-5.696-40.384 4.608l-6.592 6.208c-0.768 0.704-1.472 1.472-2.176 2.304L192.067 950.592 73.603 831.296 235.46 691.52c0.192-0.128 0.384-0.32 0.576-0.448l4.992-4.544c11.968-10.816 14.656-28.48 6.464-42.304-28.8-48.576-46.016-102.592-51.2-158.336l343.424 339.84c-52.8-4.992-104.32-20.864-151.296-47.296z m430.848-267.456c-52.8 0-95.552-42.688-95.552-95.36s42.752-95.296 95.552-95.296c52.8 0 95.552 42.688 95.552 95.296 0 52.736-42.816 95.36-95.552 95.36z m0 0" fill="" p-id="23307"></path></svg>