<?xml version="1.0" standalone="no"?><!DOCTYPE svg PUBLIC "-//W3C//DTD SVG 1.1//EN" "http://www.w3.org/Graphics/SVG/1.1/DTD/svg11.dtd"><svg t="1709650723869" class="icon" viewBox="0 0 1024 1024" version="1.1" xmlns="http://www.w3.org/2000/svg" p-id="19825" width="64" height="64" xmlns:xlink="http://www.w3.org/1999/xlink"><path d="M639.249067 824.900267l-46.062934-22.3744c37.051733-76.288 55.825067-158.327467 55.825067-243.8144A558.08 558.08 0 0 0 449.348267 130.525867l32.938666-39.202134a609.143467 609.143467 0 0 1 217.941334 467.387734c-0.017067 93.320533-20.5312 182.869333-60.9792 266.1888z" fill="#873C0A" p-id="19826"></path><path d="M336.452267 708.829867m-276.036267 0a276.036267 276.036267 0 1 0 552.072533 0 276.036267 276.036267 0 1 0-552.072533 0Z" fill="#CEAE9F" p-id="19827"></path><path d="M563.677867 136.3456c178.807467 0 324.266667 145.4592 324.266666 324.266667s-145.4592 324.266667-324.266666 324.266666-324.266667-145.4592-324.266667-324.266666 145.476267-324.266667 324.266667-324.266667m0-51.2c-207.36 0-375.466667 168.106667-375.466667 375.466667s168.106667 375.466667 375.466667 375.466666 375.466667-168.106667 375.466666-375.466666-168.106667-375.466667-375.466666-375.466667z" fill="" p-id="19828"></path><path d="M388.744533 452.061867c-62.532267 0-124.2112-9.4208-183.330133-28.023467l15.36-48.827733a558.933333 558.933333 0 0 0 167.970133 25.6512 558.250667 558.250667 0 0 0 426.752-197.956267l39.0656 33.0752a609.2288 609.2288 0 0 1-465.8176 216.081067zM322.440533 714.3424l-40.072533-31.8976c116.5824-146.414933 290.645333-230.382933 477.576533-230.382933 49.732267 0 99.2256 6.007467 147.080534 17.851733l-12.305067 49.698133a561.2544 561.2544 0 0 0-134.775467-16.349866c-171.246933 0-330.717867 76.936533-437.504 211.080533z" fill="" p-id="19829"></path></svg>